<svg aria-hidden="true" style="position: absolute; width: 0; height: 0; overflow: hidden;" version="1.1" xmlns="http://www.w3.org/2000/svg" xmlns:xlink="http://www.w3.org/1999/xlink">
<defs>
<symbol id="icon-TV" viewBox="0 0 32 32">
<path stroke-linejoin="round" stroke-linecap="round" stroke-miterlimit="4" stroke-width="1.8" d="M24 26h-16c-2.216 0-4-1.784-4-4v-10c0-2.216 1.784-4 4-4h16c2.216 0 4 1.784 4 4v10c0 2.216-1.784 4-4 4z"></path>
<path stroke-linejoin="round" stroke-linecap="round" stroke-miterlimit="4" stroke-width="1.8" d="M12 30h8"></path>
<path stroke-linejoin="round" stroke-linecap="round" stroke-miterlimit="4" stroke-width="1.8" d="M16 8l6-6"></path>
<path stroke-linejoin="round" stroke-linecap="round" stroke-miterlimit="4" stroke-width="1.8" d="M16 8l-6-6"></path>
</symbol>
<symbol id="icon-alcove" viewBox="0 0 32 32">
<path d="M1.826 6.060h8.686c0.073 0 0.142-0.028 0.194-0.079l0.834-0.814c0.243-0.237 0.565-0.367 0.908-0.367h13.172c0.613 0 1.183 0.297 1.523 0.795l1.579 2.31c0.224 0.328 0.244 0.747 0.054 1.095s-0.56 0.563-0.964 0.563h-6.789v0.669h3.477c0.922 0 1.751 0.534 2.112 1.361l2.036 4.655 1.783 0.696c0.952 0.372 1.568 1.258 1.568 2.259v4.311c0 0.643-0.536 1.166-1.195 1.166h-2.075c-0.241 1.427-1.515 2.52-3.045 2.52s-2.804-1.092-3.045-2.52h-11.342c-0.241 1.427-1.515 2.52-3.045 2.52s-2.804-1.092-3.045-2.52h-4.145c-0.586 0-1.063-0.465-1.063-1.037v-15.803c0-0.982 0.819-1.781 1.826-1.781zM25.685 26.216c1.146 0 2.078-0.909 2.078-2.027s-0.932-2.027-2.078-2.027c-1.146 0-2.078 0.909-2.078 2.027s0.932 2.027 2.078 2.027zM21.024 23.696h1.615c0.004-0.025 0.009-0.049 0.014-0.073 0.003-0.017 0.006-0.033 0.010-0.050 0.008-0.039 0.017-0.077 0.027-0.115 0.002-0.008 0.004-0.016 0.006-0.024 0.012-0.046 0.025-0.091 0.040-0.136 0.004-0.013 0.009-0.026 0.013-0.039 0.010-0.032 0.021-0.063 0.033-0.094 0.006-0.017 0.013-0.033 0.020-0.050 0.010-0.027 0.021-0.054 0.033-0.081 0.007-0.018 0.015-0.035 0.023-0.052 0.011-0.026 0.023-0.050 0.035-0.076 0.009-0.018 0.017-0.035 0.027-0.053 0.012-0.024 0.025-0.048 0.038-0.072 0.009-0.017 0.019-0.035 0.029-0.052 0.013-0.024 0.027-0.047 0.042-0.070 0.010-0.017 0.020-0.033 0.030-0.050 0.015-0.024 0.031-0.047 0.046-0.070 0.010-0.015 0.021-0.031 0.031-0.046 0.017-0.025 0.036-0.049 0.054-0.074 0.009-0.013 0.019-0.026 0.028-0.039 0.025-0.032 0.050-0.063 0.076-0.094 0.004-0.005 0.007-0.009 0.011-0.014 0.030-0.035 0.061-0.070 0.092-0.104 0.010-0.011 0.020-0.020 0.030-0.031 0.022-0.023 0.044-0.046 0.067-0.069 0.013-0.013 0.026-0.025 0.039-0.037 0.021-0.020 0.042-0.039 0.063-0.059 0.014-0.013 0.029-0.025 0.043-0.038 0.021-0.018 0.042-0.036 0.063-0.054l0.046-0.037c0.021-0.017 0.043-0.034 0.065-0.050 0.016-0.012 0.032-0.024 0.048-0.035 0.022-0.016 0.045-0.032 0.068-0.047 0.016-0.011 0.032-0.022 0.048-0.032 0.024-0.016 0.048-0.031 0.073-0.046 0.016-0.009 0.031-0.019 0.048-0.029 0.027-0.016 0.054-0.031 0.082-0.046 0.014-0.008 0.028-0.016 0.042-0.023 0.039-0.020 0.078-0.040 0.118-0.059 0.003-0.001 0.006-0.003 0.009-0.004 0.043-0.020 0.086-0.039 0.13-0.057 0.014-0.006 0.029-0.011 0.043-0.017 0.030-0.012 0.060-0.024 0.091-0.035 0.017-0.006 0.035-0.012 0.052-0.018 0.028-0.009 0.056-0.019 0.084-0.028 0.019-0.006 0.038-0.011 0.057-0.017 0.027-0.008 0.055-0.016 0.082-0.023 0.020-0.005 0.040-0.010 0.060-0.015 0.027-0.007 0.055-0.013 0.083-0.018 0.020-0.004 0.040-0.009 0.061-0.013 0.028-0.005 0.057-0.010 0.085-0.015 0.020-0.004 0.040-0.007 0.060-0.009 0.029-0.004 0.059-0.008 0.090-0.011 0.019-0.002 0.038-0.005 0.058-0.006 0.033-0.003 0.067-0.006 0.1-0.007 0.017-0.001 0.033-0.003 0.049-0.003 0.050-0.003 0.1-0.004 0.151-0.004s0.101 0.001 0.151 0.004c0.017 0 0.033 0.002 0.049 0.003 0.034 0.002 0.067 0.004 0.1 0.007 0.019 0.002 0.039 0.004 0.058 0.006 0.030 0.004 0.060 0.007 0.090 0.011 0.021 0.003 0.040 0.006 0.061 0.009 0.029 0.004 0.057 0.009 0.085 0.015 0.021 0.004 0.041 0.008 0.061 0.013 0.028 0.006 0.055 0.012 0.083 0.018 0.020 0.005 0.040 0.010 0.060 0.015 0.027 0.007 0.055 0.015 0.082 0.023 0.019 0.006 0.038 0.011 0.057 0.017 0.028 0.009 0.056 0.018 0.084 0.028 0.017 0.006 0.035 0.012 0.052 0.018 0.031 0.011 0.061 0.023 0.091 0.035 0.014 0.006 0.029 0.011 0.043 0.017 0.044 0.018 0.087 0.037 0.13 0.057 0.003 0.002 0.006 0.003 0.009 0.004 0.040 0.019 0.079 0.039 0.118 0.059 0.014 0.007 0.027 0.015 0.042 0.023 0.027 0.015 0.055 0.030 0.082 0.046 0.016 0.009 0.032 0.019 0.048 0.029 0.024 0.015 0.049 0.030 0.073 0.046 0.016 0.011 0.032 0.022 0.048 0.032 0.023 0.016 0.046 0.031 0.068 0.047 0.016 0.011 0.032 0.023 0.048 0.035 0.022 0.016 0.044 0.033 0.065 0.050l0.046 0.037c0.021 0.018 0.042 0.035 0.063 0.054 0.015 0.013 0.029 0.025 0.043 0.038 0.021 0.019 0.042 0.039 0.063 0.059 0.013 0.012 0.026 0.024 0.039 0.037 0.023 0.023 0.045 0.046 0.067 0.069 0.010 0.010 0.020 0.020 0.030 0.031 0.031 0.034 0.062 0.068 0.092 0.104 0.004 0.005 0.008 0.009 0.011 0.014 0.026 0.031 0.051 0.062 0.076 0.094 0.010 0.013 0.019 0.026 0.028 0.039 0.019 0.024 0.037 0.049 0.054 0.074 0.010 0.015 0.021 0.030 0.031 0.046 0.016 0.024 0.031 0.047 0.046 0.070 0.010 0.017 0.020 0.033 0.030 0.050 0.014 0.023 0.028 0.047 0.042 0.070 0.010 0.017 0.019 0.035 0.029 0.052 0.013 0.024 0.026 0.048 0.038 0.072 0.009 0.018 0.018 0.035 0.027 0.053 0.012 0.025 0.023 0.050 0.035 0.076 0.008 0.017 0.016 0.035 0.023 0.052 0.012 0.027 0.022 0.054 0.033 0.081 0.007 0.016 0.013 0.033 0.020 0.050 0.011 0.031 0.022 0.063 0.033 0.094 0.004 0.013 0.009 0.026 0.013 0.039 0.014 0.045 0.027 0.090 0.040 0.136 0.002 0.008 0.004 0.016 0.006 0.024 0.010 0.038 0.019 0.076 0.027 0.115 0.004 0.016 0.006 0.033 0.010 0.050 0.005 0.024 0.010 0.048 0.014 0.073h2.074c0.103 0 0.186-0.082 0.186-0.182v-2.062h-0.787v-0.984h0.787v-1.264c0-0.596-0.366-1.124-0.933-1.345l-1.888-0.737h-7.146v6.574zM21.024 16.138h6.48l-1.818-4.158c-0.203-0.464-0.668-0.763-1.185-0.763h-3.477v4.921zM8.252 26.216c1.146 0 2.078-0.909 2.078-2.027s-0.932-2.027-2.078-2.027c-0.036 0-0.071 0.001-0.107 0.003-0.955 0.047-1.742 0.727-1.929 1.616-0.007 0.033-0.013 0.067-0.019 0.1-0.011 0.067-0.017 0.135-0.021 0.204-0.002 0.035-0.003 0.069-0.003 0.104 0 1.118 0.932 2.027 2.078 2.027zM1.009 20.468h0.787v0.984h-0.787v2.192c0 0.029 0.024 0.052 0.054 0.052h4.144c0.004-0.024 0.009-0.048 0.014-0.072 0.003-0.017 0.006-0.034 0.010-0.051 0.008-0.038 0.017-0.075 0.027-0.112 0.002-0.009 0.004-0.018 0.006-0.026 0.012-0.046 0.025-0.090 0.040-0.135 0.004-0.014 0.009-0.028 0.014-0.041 0.011-0.031 0.021-0.062 0.032-0.093 0.006-0.017 0.013-0.034 0.020-0.051 0.011-0.027 0.021-0.054 0.032-0.080 0.008-0.018 0.016-0.036 0.024-0.054 0.011-0.025 0.023-0.050 0.035-0.074 0.008-0.018 0.018-0.036 0.027-0.054 0.012-0.024 0.025-0.048 0.038-0.072 0.010-0.017 0.019-0.035 0.029-0.052 0.014-0.024 0.027-0.047 0.042-0.070 0.010-0.017 0.020-0.033 0.031-0.050 0.015-0.024 0.030-0.047 0.046-0.070 0.010-0.016 0.021-0.032 0.031-0.046 0.017-0.025 0.035-0.049 0.053-0.073 0.010-0.013 0.019-0.027 0.029-0.040 0.024-0.031 0.049-0.062 0.074-0.092 0.004-0.006 0.008-0.011 0.013-0.016 0.030-0.035 0.061-0.070 0.092-0.104 0.010-0.011 0.020-0.021 0.030-0.032 0.022-0.023 0.044-0.046 0.067-0.068 0.013-0.013 0.026-0.025 0.040-0.037 0.021-0.020 0.041-0.039 0.063-0.058 0.014-0.013 0.029-0.025 0.044-0.038 0.021-0.018 0.042-0.035 0.063-0.053 0.015-0.013 0.031-0.025 0.046-0.037 0.021-0.017 0.043-0.033 0.065-0.050 0.016-0.012 0.032-0.024 0.048-0.035 0.022-0.016 0.045-0.032 0.067-0.047 0.017-0.011 0.033-0.022 0.049-0.033 0.024-0.016 0.048-0.031 0.072-0.045 0.016-0.010 0.032-0.020 0.048-0.029 0.027-0.016 0.054-0.031 0.081-0.046 0.014-0.008 0.028-0.016 0.042-0.023 0.038-0.020 0.077-0.040 0.117-0.058 0.003-0.002 0.006-0.004 0.010-0.005 0.043-0.020 0.086-0.039 0.13-0.057 0.014-0.006 0.029-0.011 0.043-0.017 0.030-0.012 0.060-0.024 0.091-0.035 0.017-0.006 0.035-0.012 0.053-0.018 0.027-0.009 0.055-0.019 0.084-0.028 0.019-0.006 0.038-0.011 0.057-0.017 0.027-0.008 0.055-0.016 0.082-0.023 0.020-0.005 0.040-0.010 0.060-0.015 0.027-0.007 0.055-0.013 0.083-0.018 0.020-0.004 0.040-0.009 0.061-0.013 0.028-0.005 0.056-0.010 0.085-0.015 0.020-0.004 0.040-0.007 0.061-0.009 0.029-0.004 0.059-0.008 0.090-0.011 0.019-0.002 0.038-0.005 0.058-0.006 0.033-0.003 0.067-0.006 0.1-0.007 0.016-0.001 0.033-0.003 0.049-0.003 0.050-0.003 0.1-0.004 0.151-0.004s0.101 0.001 0.151 0.004c0.017 0 0.033 0.002 0.049 0.003 0.033 0.002 0.067 0.004 0.1 0.007 0.019 0.002 0.039 0.004 0.058 0.006 0.030 0.004 0.060 0.007 0.090 0.011 0.021 0.003 0.040 0.006 0.060 0.009 0.029 0.004 0.057 0.009 0.085 0.015 0.021 0.004 0.041 0.008 0.061 0.013 0.028 0.006 0.055 0.012 0.083 0.018 0.020 0.005 0.040 0.010 0.060 0.015 0.027 0.007 0.055 0.015 0.082 0.023 0.019 0.006 0.038 0.011 0.057 0.017 0.028 0.009 0.056 0.018 0.084 0.028 0.018 0.006 0.036 0.012 0.053 0.018 0.031 0.011 0.061 0.023 0.091 0.035 0.014 0.006 0.029 0.011 0.043 0.017 0.044 0.018 0.087 0.037 0.13 0.057 0.004 0.002 0.007 0.003 0.010 0.005 0.040 0.019 0.078 0.038 0.117 0.058 0.014 0.007 0.028 0.015 0.042 0.023 0.027 0.015 0.054 0.030 0.081 0.046 0.016 0.009 0.032 0.019 0.048 0.029 0.024 0.015 0.048 0.030 0.072 0.045 0.016 0.011 0.032 0.022 0.049 0.033 0.023 0.015 0.045 0.031 0.067 0.047 0.016 0.011 0.032 0.023 0.048 0.035 0.022 0.016 0.044 0.033 0.065 0.050 0.016 0.012 0.031 0.025 0.046 0.037 0.021 0.017 0.042 0.035 0.063 0.053 0.015 0.013 0.029 0.025 0.044 0.038 0.021 0.019 0.042 0.039 0.063 0.059 0.013 0.012 0.026 0.024 0.039 0.037 0.023 0.022 0.045 0.046 0.067 0.069 0.010 0.010 0.020 0.020 0.030 0.031 0.031 0.034 0.062 0.068 0.092 0.104 0.004 0.005 0.008 0.010 0.012 0.015 0.025 0.031 0.051 0.062 0.075 0.094 0.010 0.013 0.019 0.026 0.029 0.039 0.018 0.024 0.036 0.049 0.054 0.074 0.010 0.015 0.021 0.031 0.031 0.046 0.016 0.023 0.031 0.046 0.046 0.070 0.010 0.017 0.021 0.033 0.031 0.050 0.014 0.023 0.028 0.047 0.042 0.070 0.010 0.017 0.019 0.035 0.029 0.052 0.013 0.024 0.026 0.048 0.038 0.072 0.009 0.018 0.017 0.035 0.026 0.053 0.012 0.025 0.023 0.050 0.035 0.076 0.008 0.017 0.016 0.035 0.023 0.052 0.012 0.027 0.022 0.054 0.033 0.081 0.006 0.016 0.013 0.033 0.019 0.050 0.012 0.031 0.022 0.063 0.033 0.095 0.004 0.013 0.009 0.026 0.013 0.039 0.014 0.045 0.027 0.091 0.040 0.136 0.002 0.007 0.003 0.015 0.005 0.022 0.010 0.039 0.019 0.078 0.028 0.117 0.004 0.016 0.006 0.032 0.009 0.048 0.005 0.025 0.010 0.049 0.015 0.074h8.717v-14.625c0-0.272 0.226-0.492 0.504-0.492h7.293c0.012 0 0.051 0 0.075-0.044s0.003-0.074-0.004-0.084l-1.578-2.31c-0.153-0.224-0.408-0.357-0.684-0.357h-13.172c-0.073 0-0.142 0.028-0.195 0.079l-0.834 0.814c-0.242 0.237-0.565 0.367-0.908 0.367h-8.686c-0.45 0-0.817 0.357-0.817 0.797v12.627z"></path>
<path d="M14.081 9.838h3.191c0.644 0 1.169 0.511 1.169 1.14v10.532c0 0.272-0.226 0.492-0.504 0.492h-4.52c-0.278 0-0.504-0.22-0.504-0.492v-10.532c-0-0.629 0.524-1.14 1.169-1.14zM13.921 21.019h3.511v-5.787h-3.511v5.787zM13.921 14.248h3.511v-3.269c0-0.086-0.072-0.156-0.16-0.156h-3.191c-0.088 0-0.16 0.070-0.16 0.156v3.269h0zM3.875 9.838h6.17c0.713 0 1.293 0.566 1.293 1.262v2.87c0 0.696-0.58 1.262-1.293 1.262h-6.17c-0.713 0-1.293-0.566-1.293-1.262v-2.87c0-0.696 0.581-1.262 1.294-1.262zM3.59 13.97c0 0.153 0.127 0.278 0.284 0.278h6.17c0.157 0 0.284-0.124 0.284-0.278v-2.87c0-0.153-0.128-0.278-0.284-0.278h-6.17c-0.157 0-0.284 0.124-0.284 0.278v2.87h0z"></path>
</symbol>
<symbol id="icon-fullyIntegrated" viewBox="0 0 32 32">
<path d="M1.826 6.060h8.686c0.073 0 0.142-0.028 0.194-0.079l0.834-0.814c0.243-0.237 0.565-0.367 0.908-0.367h13.172c0.613 0 1.183 0.297 1.523 0.795l1.579 2.31c0.224 0.328 0.244 0.747 0.054 1.095s-0.56 0.563-0.964 0.563h-6.789v0.669h3.477c0.922 0 1.751 0.534 2.112 1.361l2.036 4.655 1.783 0.696c0.952 0.372 1.568 1.258 1.568 2.259v4.311c0 0.643-0.536 1.166-1.195 1.166h-2.075c-0.241 1.427-1.515 2.52-3.045 2.52s-2.804-1.092-3.045-2.52h-11.342c-0.241 1.427-1.515 2.52-3.045 2.52s-2.804-1.092-3.045-2.52h-4.145c-0.586 0-1.063-0.465-1.063-1.037v-15.803c0-0.982 0.819-1.781 1.826-1.781zM25.685 26.216c1.146 0 2.078-0.909 2.078-2.027s-0.932-2.027-2.078-2.027c-1.146 0-2.078 0.909-2.078 2.027s0.932 2.027 2.078 2.027zM21.024 23.696h1.615c0.004-0.025 0.009-0.049 0.014-0.073 0.003-0.017 0.006-0.033 0.010-0.050 0.008-0.039 0.017-0.077 0.027-0.115 0.002-0.008 0.004-0.016 0.006-0.024 0.012-0.046 0.025-0.091 0.040-0.136 0.004-0.013 0.009-0.026 0.013-0.039 0.010-0.032 0.021-0.063 0.033-0.094 0.006-0.017 0.013-0.033 0.020-0.050 0.010-0.027 0.021-0.054 0.033-0.081 0.007-0.018 0.015-0.035 0.023-0.052 0.011-0.026 0.023-0.050 0.035-0.076 0.009-0.018 0.017-0.035 0.027-0.053 0.012-0.024 0.025-0.048 0.038-0.072 0.009-0.017 0.019-0.035 0.029-0.052 0.013-0.024 0.027-0.047 0.042-0.070 0.010-0.017 0.020-0.033 0.030-0.050 0.015-0.024 0.031-0.047 0.046-0.070 0.010-0.015 0.021-0.031 0.031-0.046 0.017-0.025 0.036-0.049 0.054-0.074 0.009-0.013 0.019-0.026 0.028-0.039 0.025-0.032 0.050-0.063 0.076-0.094 0.004-0.005 0.007-0.009 0.011-0.014 0.030-0.035 0.061-0.070 0.092-0.104 0.010-0.011 0.020-0.020 0.030-0.031 0.022-0.023 0.044-0.046 0.067-0.069 0.013-0.013 0.026-0.025 0.039-0.037 0.021-0.020 0.042-0.039 0.063-0.059 0.014-0.013 0.029-0.025 0.043-0.038 0.021-0.018 0.042-0.036 0.063-0.054l0.046-0.037c0.021-0.017 0.043-0.034 0.065-0.050 0.016-0.012 0.032-0.024 0.048-0.035 0.022-0.016 0.045-0.032 0.068-0.047 0.016-0.011 0.032-0.022 0.048-0.032 0.024-0.016 0.048-0.031 0.073-0.046 0.016-0.009 0.031-0.019 0.048-0.029 0.027-0.016 0.054-0.031 0.082-0.046 0.014-0.008 0.028-0.016 0.042-0.023 0.039-0.020 0.078-0.040 0.118-0.059 0.003-0.001 0.006-0.003 0.009-0.004 0.043-0.020 0.086-0.039 0.13-0.057 0.014-0.006 0.029-0.011 0.043-0.017 0.030-0.012 0.060-0.024 0.091-0.035 0.017-0.006 0.035-0.012 0.052-0.018 0.028-0.009 0.056-0.019 0.084-0.028 0.019-0.006 0.038-0.011 0.057-0.017 0.027-0.008 0.055-0.016 0.082-0.023 0.020-0.005 0.040-0.010 0.060-0.015 0.027-0.007 0.055-0.013 0.083-0.018 0.020-0.004 0.040-0.009 0.061-0.013 0.028-0.005 0.057-0.010 0.085-0.015 0.020-0.004 0.040-0.007 0.060-0.009 0.029-0.004 0.059-0.008 0.090-0.011 0.019-0.002 0.038-0.005 0.058-0.006 0.033-0.003 0.067-0.006 0.1-0.007 0.017-0.001 0.033-0.003 0.049-0.003 0.050-0.003 0.1-0.004 0.151-0.004s0.101 0.001 0.151 0.004c0.017 0 0.033 0.002 0.049 0.003 0.034 0.002 0.067 0.004 0.1 0.007 0.019 0.002 0.039 0.004 0.058 0.006 0.030 0.004 0.060 0.007 0.090 0.011 0.021 0.003 0.040 0.006 0.061 0.009 0.029 0.004 0.057 0.009 0.085 0.015 0.021 0.004 0.041 0.008 0.061 0.013 0.028 0.006 0.055 0.012 0.083 0.018 0.020 0.005 0.040 0.010 0.060 0.015 0.027 0.007 0.055 0.015 0.082 0.023 0.019 0.006 0.038 0.011 0.057 0.017 0.028 0.009 0.056 0.018 0.084 0.028 0.017 0.006 0.035 0.012 0.052 0.018 0.031 0.011 0.061 0.023 0.091 0.035 0.014 0.006 0.029 0.011 0.043 0.017 0.044 0.018 0.087 0.037 0.13 0.057 0.003 0.002 0.006 0.003 0.009 0.004 0.040 0.019 0.079 0.039 0.118 0.059 0.014 0.007 0.027 0.015 0.042 0.023 0.027 0.015 0.055 0.030 0.082 0.046 0.016 0.009 0.032 0.019 0.048 0.029 0.024 0.015 0.049 0.030 0.073 0.046 0.016 0.011 0.032 0.022 0.048 0.032 0.023 0.016 0.046 0.031 0.068 0.047 0.016 0.011 0.032 0.023 0.048 0.035 0.022 0.016 0.044 0.033 0.065 0.050l0.046 0.037c0.021 0.018 0.042 0.035 0.063 0.054 0.015 0.013 0.029 0.025 0.043 0.038 0.021 0.019 0.042 0.039 0.063 0.059 0.013 0.012 0.026 0.024 0.039 0.037 0.023 0.023 0.045 0.046 0.067 0.069 0.010 0.010 0.020 0.020 0.030 0.031 0.031 0.034 0.062 0.068 0.092 0.104 0.004 0.005 0.008 0.009 0.011 0.014 0.026 0.031 0.051 0.062 0.076 0.094 0.010 0.013 0.019 0.026 0.028 0.039 0.019 0.024 0.037 0.049 0.054 0.074 0.010 0.015 0.021 0.030 0.031 0.046 0.016 0.024 0.031 0.047 0.046 0.070 0.010 0.017 0.020 0.033 0.030 0.050 0.014 0.023 0.028 0.047 0.042 0.070 0.010 0.017 0.019 0.035 0.029 0.052 0.013 0.024 0.026 0.048 0.038 0.072 0.009 0.018 0.018 0.035 0.027 0.053 0.012 0.025 0.023 0.050 0.035 0.076 0.008 0.017 0.016 0.035 0.023 0.052 0.012 0.027 0.022 0.054 0.033 0.081 0.007 0.016 0.013 0.033 0.020 0.050 0.011 0.031 0.022 0.063 0.033 0.094 0.004 0.013 0.009 0.026 0.013 0.039 0.014 0.045 0.027 0.090 0.040 0.136 0.002 0.008 0.004 0.016 0.006 0.024 0.010 0.038 0.019 0.076 0.027 0.115 0.004 0.016 0.006 0.033 0.010 0.050 0.005 0.024 0.010 0.048 0.014 0.073h2.074c0.103 0 0.186-0.082 0.186-0.182v-2.062h-0.787v-0.984h0.787v-1.264c0-0.596-0.366-1.124-0.933-1.345l-1.888-0.737h-7.146v6.574zM21.024 16.138h6.48l-1.818-4.158c-0.203-0.464-0.668-0.763-1.185-0.763h-3.477v4.921zM8.252 26.216c1.146 0 2.078-0.909 2.078-2.027s-0.932-2.027-2.078-2.027c-0.036 0-0.071 0.001-0.107 0.003-0.955 0.047-1.742 0.727-1.929 1.616-0.007 0.033-0.013 0.067-0.019 0.1-0.011 0.067-0.017 0.135-0.021 0.204-0.002 0.035-0.003 0.069-0.003 0.104 0 1.118 0.932 2.027 2.078 2.027zM1.009 20.468h0.787v0.984h-0.787v2.192c0 0.029 0.024 0.052 0.054 0.052h4.144c0.004-0.024 0.009-0.048 0.014-0.072 0.003-0.017 0.006-0.034 0.010-0.051 0.008-0.038 0.017-0.075 0.027-0.112 0.002-0.009 0.004-0.018 0.006-0.026 0.012-0.046 0.025-0.090 0.040-0.135 0.004-0.014 0.009-0.028 0.014-0.041 0.011-0.031 0.021-0.062 0.032-0.093 0.006-0.017 0.013-0.034 0.020-0.051 0.011-0.027 0.021-0.054 0.032-0.080 0.008-0.018 0.016-0.036 0.024-0.054 0.011-0.025 0.023-0.050 0.035-0.074 0.008-0.018 0.018-0.036 0.027-0.054 0.012-0.024 0.025-0.048 0.038-0.072 0.010-0.017 0.019-0.035 0.029-0.052 0.014-0.024 0.027-0.047 0.042-0.070 0.010-0.017 0.020-0.033 0.031-0.050 0.015-0.024 0.030-0.047 0.046-0.070 0.010-0.016 0.021-0.032 0.031-0.046 0.017-0.025 0.035-0.049 0.053-0.073 0.010-0.013 0.019-0.027 0.029-0.040 0.024-0.031 0.049-0.062 0.074-0.092 0.004-0.006 0.008-0.011 0.013-0.016 0.030-0.035 0.061-0.070 0.092-0.104 0.010-0.011 0.020-0.021 0.030-0.032 0.022-0.023 0.044-0.046 0.067-0.068 0.013-0.013 0.026-0.025 0.040-0.037 0.021-0.020 0.041-0.039 0.063-0.058 0.014-0.013 0.029-0.025 0.044-0.038 0.021-0.018 0.042-0.035 0.063-0.053 0.015-0.013 0.031-0.025 0.046-0.037 0.021-0.017 0.043-0.033 0.065-0.050 0.016-0.012 0.032-0.024 0.048-0.035 0.022-0.016 0.045-0.032 0.067-0.047 0.017-0.011 0.033-0.022 0.049-0.033 0.024-0.016 0.048-0.031 0.072-0.045 0.016-0.010 0.032-0.020 0.048-0.029 0.027-0.016 0.054-0.031 0.081-0.046 0.014-0.008 0.028-0.016 0.042-0.023 0.038-0.020 0.077-0.040 0.117-0.058 0.003-0.002 0.006-0.004 0.010-0.005 0.043-0.020 0.086-0.039 0.13-0.057 0.014-0.006 0.029-0.011 0.043-0.017 0.030-0.012 0.060-0.024 0.091-0.035 0.017-0.006 0.035-0.012 0.053-0.018 0.027-0.009 0.055-0.019 0.084-0.028 0.019-0.006 0.038-0.011 0.057-0.017 0.027-0.008 0.055-0.016 0.082-0.023 0.020-0.005 0.040-0.010 0.060-0.015 0.027-0.007 0.055-0.013 0.083-0.018 0.020-0.004 0.040-0.009 0.061-0.013 0.028-0.005 0.056-0.010 0.085-0.015 0.020-0.004 0.040-0.007 0.061-0.009 0.029-0.004 0.059-0.008 0.090-0.011 0.019-0.002 0.038-0.005 0.058-0.006 0.033-0.003 0.067-0.006 0.1-0.007 0.016-0.001 0.033-0.003 0.049-0.003 0.050-0.003 0.1-0.004 0.151-0.004s0.101 0.001 0.151 0.004c0.017 0 0.033 0.002 0.049 0.003 0.033 0.002 0.067 0.004 0.1 0.007 0.019 0.002 0.039 0.004 0.058 0.006 0.030 0.004 0.060 0.007 0.090 0.011 0.021 0.003 0.040 0.006 0.060 0.009 0.029 0.004 0.057 0.009 0.085 0.015 0.021 0.004 0.041 0.008 0.061 0.013 0.028 0.006 0.055 0.012 0.083 0.018 0.020 0.005 0.040 0.010 0.060 0.015 0.027 0.007 0.055 0.015 0.082 0.023 0.019 0.006 0.038 0.011 0.057 0.017 0.028 0.009 0.056 0.018 0.084 0.028 0.018 0.006 0.036 0.012 0.053 0.018 0.031 0.011 0.061 0.023 0.091 0.035 0.014 0.006 0.029 0.011 0.043 0.017 0.044 0.018 0.087 0.037 0.13 0.057 0.004 0.002 0.007 0.003 0.010 0.005 0.040 0.019 0.078 0.038 0.117 0.058 0.014 0.007 0.028 0.015 0.042 0.023 0.027 0.015 0.054 0.030 0.081 0.046 0.016 0.009 0.032 0.019 0.048 0.029 0.024 0.015 0.048 0.030 0.072 0.045 0.016 0.011 0.032 0.022 0.049 0.033 0.023 0.015 0.045 0.031 0.067 0.047 0.016 0.011 0.032 0.023 0.048 0.035 0.022 0.016 0.044 0.033 0.065 0.050 0.016 0.012 0.031 0.025 0.046 0.037 0.021 0.017 0.042 0.035 0.063 0.053 0.015 0.013 0.029 0.025 0.044 0.038 0.021 0.019 0.042 0.039 0.063 0.059 0.013 0.012 0.026 0.024 0.039 0.037 0.023 0.022 0.045 0.046 0.067 0.069 0.010 0.010 0.020 0.020 0.030 0.031 0.031 0.034 0.062 0.068 0.092 0.104 0.004 0.005 0.008 0.010 0.012 0.015 0.025 0.031 0.051 0.062 0.075 0.094 0.010 0.013 0.019 0.026 0.029 0.039 0.018 0.024 0.036 0.049 0.054 0.074 0.010 0.015 0.021 0.031 0.031 0.046 0.016 0.023 0.031 0.046 0.046 0.070 0.010 0.017 0.021 0.033 0.031 0.050 0.014 0.023 0.028 0.047 0.042 0.070 0.010 0.017 0.019 0.035 0.029 0.052 0.013 0.024 0.026 0.048 0.038 0.072 0.009 0.018 0.017 0.035 0.026 0.053 0.012 0.025 0.023 0.050 0.035 0.076 0.008 0.017 0.016 0.035 0.023 0.052 0.012 0.027 0.022 0.054 0.033 0.081 0.006 0.016 0.013 0.033 0.019 0.050 0.012 0.031 0.022 0.063 0.033 0.095 0.004 0.013 0.009 0.026 0.013 0.039 0.014 0.045 0.027 0.091 0.040 0.136 0.002 0.007 0.003 0.015 0.005 0.022 0.010 0.039 0.019 0.078 0.028 0.117 0.004 0.016 0.006 0.032 0.009 0.048 0.005 0.025 0.010 0.049 0.015 0.074h8.717v-14.625c0-0.272 0.226-0.492 0.504-0.492h7.293c0.012 0 0.051 0 0.075-0.044s0.003-0.074-0.004-0.084l-1.578-2.31c-0.153-0.224-0.408-0.357-0.684-0.357h-13.172c-0.073 0-0.142 0.028-0.195 0.079l-0.834 0.814c-0.242 0.237-0.565 0.367-0.908 0.367h-8.686c-0.45 0-0.817 0.357-0.817 0.797v12.627z"></path>
<path d="M14.081 9.838h3.191c0.644 0 1.169 0.511 1.169 1.14v10.532c0 0.272-0.226 0.492-0.504 0.492h-4.52c-0.278 0-0.504-0.22-0.504-0.492v-10.532c-0-0.629 0.524-1.14 1.169-1.14zM13.921 21.019h3.511v-5.787h-3.511v5.787zM13.921 14.248h3.511v-3.269c0-0.086-0.072-0.156-0.16-0.156h-3.191c-0.088 0-0.16 0.070-0.16 0.156l0 3.269z"></path>
</symbol>
<symbol id="icon-panelTruck" viewBox="0 0 32 32">
<path d="M1.826 6.060h8.686c0.073 0 0.142-0.028 0.194-0.079l0.834-0.814c0.243-0.237 0.565-0.367 0.908-0.367h13.172c0.613 0 1.183 0.297 1.523 0.795l1.579 2.31c0.224 0.328 0.244 0.747 0.054 1.095s-0.56 0.563-0.964 0.563h-6.789v0.669h3.477c0.922 0 1.751 0.534 2.112 1.361l2.036 4.655 1.783 0.696c0.952 0.372 1.568 1.258 1.568 2.259v4.311c0 0.643-0.536 1.166-1.195 1.166h-2.075c-0.241 1.427-1.515 2.52-3.045 2.52s-2.804-1.092-3.045-2.52h-11.342c-0.241 1.427-1.515 2.52-3.045 2.52s-2.804-1.092-3.045-2.52h-4.145c-0.586 0-1.063-0.465-1.063-1.037v-15.803c0-0.982 0.819-1.781 1.826-1.781zM25.685 26.216c1.146 0 2.078-0.909 2.078-2.027s-0.932-2.027-2.078-2.027c-1.146 0-2.078 0.909-2.078 2.027s0.932 2.027 2.078 2.027zM21.024 23.696h1.615c0.004-0.025 0.009-0.049 0.014-0.073 0.003-0.017 0.006-0.033 0.010-0.050 0.008-0.039 0.017-0.077 0.027-0.115 0.002-0.008 0.004-0.016 0.006-0.024 0.012-0.046 0.025-0.091 0.040-0.136 0.004-0.013 0.009-0.026 0.013-0.039 0.010-0.032 0.021-0.063 0.033-0.094 0.006-0.017 0.013-0.033 0.020-0.050 0.010-0.027 0.021-0.054 0.033-0.081 0.007-0.018 0.015-0.035 0.023-0.052 0.011-0.026 0.023-0.050 0.035-0.076 0.009-0.018 0.017-0.035 0.027-0.053 0.012-0.024 0.025-0.048 0.038-0.072 0.009-0.017 0.019-0.035 0.029-0.052 0.013-0.024 0.027-0.047 0.042-0.070 0.010-0.017 0.020-0.033 0.030-0.050 0.015-0.024 0.031-0.047 0.046-0.070 0.010-0.015 0.021-0.031 0.031-0.046 0.017-0.025 0.036-0.049 0.054-0.074 0.009-0.013 0.019-0.026 0.028-0.039 0.025-0.032 0.050-0.063 0.076-0.094 0.004-0.005 0.007-0.009 0.011-0.014 0.030-0.035 0.061-0.070 0.092-0.104 0.010-0.011 0.020-0.020 0.030-0.031 0.022-0.023 0.044-0.046 0.067-0.069 0.013-0.013 0.026-0.025 0.039-0.037 0.021-0.020 0.042-0.039 0.063-0.059 0.014-0.013 0.029-0.025 0.043-0.038 0.021-0.018 0.042-0.036 0.063-0.054l0.046-0.037c0.021-0.017 0.043-0.034 0.065-0.050 0.016-0.012 0.032-0.024 0.048-0.035 0.022-0.016 0.045-0.032 0.068-0.047 0.016-0.011 0.032-0.022 0.048-0.032 0.024-0.016 0.048-0.031 0.073-0.046 0.016-0.009 0.031-0.019 0.048-0.029 0.027-0.016 0.054-0.031 0.082-0.046 0.014-0.008 0.028-0.016 0.042-0.023 0.039-0.020 0.078-0.040 0.118-0.059 0.003-0.001 0.006-0.003 0.009-0.004 0.043-0.020 0.086-0.039 0.13-0.057 0.014-0.006 0.029-0.011 0.043-0.017 0.030-0.012 0.060-0.024 0.091-0.035 0.017-0.006 0.035-0.012 0.052-0.018 0.028-0.009 0.056-0.019 0.084-0.028 0.019-0.006 0.038-0.011 0.057-0.017 0.027-0.008 0.055-0.016 0.082-0.023 0.020-0.005 0.040-0.010 0.060-0.015 0.027-0.007 0.055-0.013 0.083-0.018 0.020-0.004 0.040-0.009 0.061-0.013 0.028-0.005 0.057-0.010 0.085-0.015 0.020-0.004 0.040-0.007 0.060-0.009 0.029-0.004 0.059-0.008 0.090-0.011 0.019-0.002 0.038-0.005 0.058-0.006 0.033-0.003 0.067-0.006 0.1-0.007 0.017-0.001 0.033-0.003 0.049-0.003 0.050-0.003 0.1-0.004 0.151-0.004s0.101 0.001 0.151 0.004c0.017 0 0.033 0.002 0.049 0.003 0.034 0.002 0.067 0.004 0.1 0.007 0.019 0.002 0.039 0.004 0.058 0.006 0.030 0.004 0.060 0.007 0.090 0.011 0.021 0.003 0.040 0.006 0.061 0.009 0.029 0.004 0.057 0.009 0.085 0.015 0.021 0.004 0.041 0.008 0.061 0.013 0.028 0.006 0.055 0.012 0.083 0.018 0.020 0.005 0.040 0.010 0.060 0.015 0.027 0.007 0.055 0.015 0.082 0.023 0.019 0.006 0.038 0.011 0.057 0.017 0.028 0.009 0.056 0.018 0.084 0.028 0.017 0.006 0.035 0.012 0.052 0.018 0.031 0.011 0.061 0.023 0.091 0.035 0.014 0.006 0.029 0.011 0.043 0.017 0.044 0.018 0.087 0.037 0.13 0.057 0.003 0.002 0.006 0.003 0.009 0.004 0.040 0.019 0.079 0.039 0.118 0.059 0.014 0.007 0.027 0.015 0.042 0.023 0.027 0.015 0.055 0.030 0.082 0.046 0.016 0.009 0.032 0.019 0.048 0.029 0.024 0.015 0.049 0.030 0.073 0.046 0.016 0.011 0.032 0.022 0.048 0.032 0.023 0.016 0.046 0.031 0.068 0.047 0.016 0.011 0.032 0.023 0.048 0.035 0.022 0.016 0.044 0.033 0.065 0.050l0.046 0.037c0.021 0.018 0.042 0.035 0.063 0.054 0.015 0.013 0.029 0.025 0.043 0.038 0.021 0.019 0.042 0.039 0.063 0.059 0.013 0.012 0.026 0.024 0.039 0.037 0.023 0.023 0.045 0.046 0.067 0.069 0.010 0.010 0.020 0.020 0.030 0.031 0.031 0.034 0.062 0.068 0.092 0.104 0.004 0.005 0.008 0.009 0.011 0.014 0.026 0.031 0.051 0.062 0.076 0.094 0.010 0.013 0.019 0.026 0.028 0.039 0.019 0.024 0.037 0.049 0.054 0.074 0.010 0.015 0.021 0.030 0.031 0.046 0.016 0.024 0.031 0.047 0.046 0.070 0.010 0.017 0.020 0.033 0.030 0.050 0.014 0.023 0.028 0.047 0.042 0.070 0.010 0.017 0.019 0.035 0.029 0.052 0.013 0.024 0.026 0.048 0.038 0.072 0.009 0.018 0.018 0.035 0.027 0.053 0.012 0.025 0.023 0.050 0.035 0.076 0.008 0.017 0.016 0.035 0.023 0.052 0.012 0.027 0.022 0.054 0.033 0.081 0.007 0.016 0.013 0.033 0.020 0.050 0.011 0.031 0.022 0.063 0.033 0.094 0.004 0.013 0.009 0.026 0.013 0.039 0.014 0.045 0.027 0.090 0.040 0.136 0.002 0.008 0.004 0.016 0.006 0.024 0.010 0.038 0.019 0.076 0.027 0.115 0.004 0.016 0.006 0.033 0.010 0.050 0.005 0.024 0.010 0.048 0.014 0.073h2.074c0.103 0 0.186-0.082 0.186-0.182v-2.062h-0.787v-0.984h0.787v-1.264c0-0.596-0.366-1.124-0.933-1.345l-1.888-0.737h-7.146v6.574zM21.024 16.138h6.48l-1.818-4.158c-0.203-0.464-0.668-0.763-1.185-0.763h-3.477v4.921zM8.252 26.216c1.146 0 2.078-0.909 2.078-2.027s-0.932-2.027-2.078-2.027c-0.036 0-0.071 0.001-0.107 0.003-0.955 0.047-1.742 0.727-1.929 1.616-0.007 0.033-0.013 0.067-0.019 0.1-0.011 0.067-0.017 0.135-0.021 0.204-0.002 0.035-0.003 0.069-0.003 0.104 0 1.118 0.932 2.027 2.078 2.027zM1.009 20.468h0.787v0.984h-0.787v2.192c0 0.029 0.024 0.052 0.054 0.052h4.144c0.004-0.024 0.009-0.048 0.014-0.072 0.003-0.017 0.006-0.034 0.010-0.051 0.008-0.038 0.017-0.075 0.027-0.112 0.002-0.009 0.004-0.018 0.006-0.026 0.012-0.046 0.025-0.090 0.040-0.135 0.004-0.014 0.009-0.028 0.014-0.041 0.011-0.031 0.021-0.062 0.032-0.093 0.006-0.017 0.013-0.034 0.020-0.051 0.011-0.027 0.021-0.054 0.032-0.080 0.008-0.018 0.016-0.036 0.024-0.054 0.011-0.025 0.023-0.050 0.035-0.074 0.008-0.018 0.018-0.036 0.027-0.054 0.012-0.024 0.025-0.048 0.038-0.072 0.010-0.017 0.019-0.035 0.029-0.052 0.014-0.024 0.027-0.047 0.042-0.070 0.010-0.017 0.020-0.033 0.031-0.050 0.015-0.024 0.030-0.047 0.046-0.070 0.010-0.016 0.021-0.032 0.031-0.046 0.017-0.025 0.035-0.049 0.053-0.073 0.010-0.013 0.019-0.027 0.029-0.040 0.024-0.031 0.049-0.062 0.074-0.092 0.004-0.006 0.008-0.011 0.013-0.016 0.030-0.035 0.061-0.070 0.092-0.104 0.010-0.011 0.020-0.021 0.030-0.032 0.022-0.023 0.044-0.046 0.067-0.068 0.013-0.013 0.026-0.025 0.040-0.037 0.021-0.020 0.041-0.039 0.063-0.058 0.014-0.013 0.029-0.025 0.044-0.038 0.021-0.018 0.042-0.035 0.063-0.053 0.015-0.013 0.031-0.025 0.046-0.037 0.021-0.017 0.043-0.033 0.065-0.050 0.016-0.012 0.032-0.024 0.048-0.035 0.022-0.016 0.045-0.032 0.067-0.047 0.017-0.011 0.033-0.022 0.049-0.033 0.024-0.016 0.048-0.031 0.072-0.045 0.016-0.010 0.032-0.020 0.048-0.029 0.027-0.016 0.054-0.031 0.081-0.046 0.014-0.008 0.028-0.016 0.042-0.023 0.038-0.020 0.077-0.040 0.117-0.058 0.003-0.002 0.006-0.004 0.010-0.005 0.043-0.020 0.086-0.039 0.13-0.057 0.014-0.006 0.029-0.011 0.043-0.017 0.030-0.012 0.060-0.024 0.091-0.035 0.017-0.006 0.035-0.012 0.053-0.018 0.027-0.009 0.055-0.019 0.084-0.028 0.019-0.006 0.038-0.011 0.057-0.017 0.027-0.008 0.055-0.016 0.082-0.023 0.020-0.005 0.040-0.010 0.060-0.015 0.027-0.007 0.055-0.013 0.083-0.018 0.020-0.004 0.040-0.009 0.061-0.013 0.028-0.005 0.056-0.010 0.085-0.015 0.020-0.004 0.040-0.007 0.061-0.009 0.029-0.004 0.059-0.008 0.090-0.011 0.019-0.002 0.038-0.005 0.058-0.006 0.033-0.003 0.067-0.006 0.1-0.007 0.016-0.001 0.033-0.003 0.049-0.003 0.050-0.003 0.1-0.004 0.151-0.004s0.101 0.001 0.151 0.004c0.017 0 0.033 0.002 0.049 0.003 0.033 0.002 0.067 0.004 0.1 0.007 0.019 0.002 0.039 0.004 0.058 0.006 0.030 0.004 0.060 0.007 0.090 0.011 0.021 0.003 0.040 0.006 0.060 0.009 0.029 0.004 0.057 0.009 0.085 0.015 0.021 0.004 0.041 0.008 0.061 0.013 0.028 0.006 0.055 0.012 0.083 0.018 0.020 0.005 0.040 0.010 0.060 0.015 0.027 0.007 0.055 0.015 0.082 0.023 0.019 0.006 0.038 0.011 0.057 0.017 0.028 0.009 0.056 0.018 0.084 0.028 0.018 0.006 0.036 0.012 0.053 0.018 0.031 0.011 0.061 0.023 0.091 0.035 0.014 0.006 0.029 0.011 0.043 0.017 0.044 0.018 0.087 0.037 0.13 0.057 0.004 0.002 0.007 0.003 0.010 0.005 0.040 0.019 0.078 0.038 0.117 0.058 0.014 0.007 0.028 0.015 0.042 0.023 0.027 0.015 0.054 0.030 0.081 0.046 0.016 0.009 0.032 0.019 0.048 0.029 0.024 0.015 0.048 0.030 0.072 0.045 0.016 0.011 0.032 0.022 0.049 0.033 0.023 0.015 0.045 0.031 0.067 0.047 0.016 0.011 0.032 0.023 0.048 0.035 0.022 0.016 0.044 0.033 0.065 0.050 0.016 0.012 0.031 0.025 0.046 0.037 0.021 0.017 0.042 0.035 0.063 0.053 0.015 0.013 0.029 0.025 0.044 0.038 0.021 0.019 0.042 0.039 0.063 0.059 0.013 0.012 0.026 0.024 0.039 0.037 0.023 0.022 0.045 0.046 0.067 0.069 0.010 0.010 0.020 0.020 0.030 0.031 0.031 0.034 0.062 0.068 0.092 0.104 0.004 0.005 0.008 0.010 0.012 0.015 0.025 0.031 0.051 0.062 0.075 0.094 0.010 0.013 0.019 0.026 0.029 0.039 0.018 0.024 0.036 0.049 0.054 0.074 0.010 0.015 0.021 0.031 0.031 0.046 0.016 0.023 0.031 0.046 0.046 0.070 0.010 0.017 0.021 0.033 0.031 0.050 0.014 0.023 0.028 0.047 0.042 0.070 0.010 0.017 0.019 0.035 0.029 0.052 0.013 0.024 0.026 0.048 0.038 0.072 0.009 0.018 0.017 0.035 0.026 0.053 0.012 0.025 0.023 0.050 0.035 0.076 0.008 0.017 0.016 0.035 0.023 0.052 0.012 0.027 0.022 0.054 0.033 0.081 0.006 0.016 0.013 0.033 0.019 0.050 0.012 0.031 0.022 0.063 0.033 0.095 0.004 0.013 0.009 0.026 0.013 0.039 0.014 0.045 0.027 0.091 0.040 0.136 0.002 0.007 0.003 0.015 0.005 0.022 0.010 0.039 0.019 0.078 0.028 0.117 0.004 0.016 0.006 0.032 0.009 0.048 0.005 0.025 0.010 0.049 0.015 0.074h8.717v-14.625c0-0.272 0.226-0.492 0.504-0.492h7.293c0.012 0 0.051 0 0.075-0.044s0.003-0.074-0.004-0.084l-1.578-2.31c-0.153-0.224-0.408-0.357-0.684-0.357h-13.172c-0.073 0-0.142 0.028-0.195 0.079l-0.834 0.814c-0.242 0.237-0.565 0.367-0.908 0.367h-8.686c-0.45 0-0.817 0.357-0.817 0.797v12.627z"></path>
<path d="M3.875 9.838h6.17c0.713 0 1.293 0.566 1.293 1.262v2.87c0 0.696-0.58 1.262-1.293 1.262h-6.17c-0.713 0-1.293-0.566-1.293-1.262v-2.87c0-0.696 0.581-1.262 1.294-1.262zM3.591 13.97c0 0.153 0.127 0.278 0.284 0.278h6.17c0.157 0 0.284-0.124 0.284-0.278v-2.87c0-0.153-0.128-0.278-0.284-0.278h-6.17c-0.157 0-0.284 0.124-0.284 0.278l0 2.87z"></path>
</symbol>
<symbol id="icon-route" viewBox="0 0 32 32">
<path d="M6.667 4c-1.473 0-2.667 1.194-2.667 2.667s1.194 2.667 2.667 2.667c1.473 0 2.667-1.194 2.667-2.667s-1.194-2.667-2.667-2.667zM1.333 6.667c0-2.946 2.388-5.333 5.333-5.333s5.333 2.388 5.333 5.333c0 2.946-2.388 5.333-5.333 5.333s-5.333-2.388-5.333-5.333z"></path>
<path d="M25.333 22.667c-1.473 0-2.667 1.194-2.667 2.667s1.194 2.667 2.667 2.667c1.473 0 2.667-1.194 2.667-2.667s-1.194-2.667-2.667-2.667zM20 25.333c0-2.945 2.388-5.333 5.333-5.333s5.333 2.388 5.333 5.333c0 2.946-2.388 5.333-5.333 5.333s-5.333-2.388-5.333-5.333z"></path>
<path d="M13.333 6.667c0-0.736 0.597-1.333 1.333-1.333h8.4c4.13 0 5.62 5.404 1.987 7.429l-15.473 8.804c-1.16 0.644-0.782 2.434 0.686 2.434h7.067c0.736 0 1.333 0.597 1.333 1.333s-0.597 1.333-1.333 1.333h-7.067c-4.13 0-5.619-5.404-1.987-7.429l15.473-8.804c1.16-0.644 0.782-2.434-0.686-2.434h-8.4c-0.736 0-1.333-0.597-1.333-1.333z"></path>
</symbol>
<symbol id="icon-calendar" viewBox="0 0 32 32">
<path stroke-linejoin="round" stroke-linecap="round" stroke-miterlimit="4" stroke-width="2.4" d="M25.333 5.333h-18.667c-1.473 0-2.667 1.194-2.667 2.667v18.667c0 1.473 1.194 2.667 2.667 2.667h18.667c1.473 0 2.667-1.194 2.667-2.667v-18.667c0-1.473-1.194-2.667-2.667-2.667z"></path>
<path stroke-linejoin="round" stroke-linecap="round" stroke-miterlimit="4" stroke-width="2.4" d="M21.333 2.667v5.333"></path>
<path stroke-linejoin="round" stroke-linecap="round" stroke-miterlimit="4" stroke-width="2.4" d="M10.667 2.667v5.333"></path>
<path stroke-linejoin="round" stroke-linecap="round" stroke-miterlimit="4" stroke-width="2.4" d="M4 13.333h24"></path>
</symbol>
<symbol id="icon-heart" viewBox="0 0 32 32">
<path stroke-linejoin="round" stroke-linecap="round" stroke-miterlimit="4" stroke-width="3.0667" d="M27.787 6.147c-0.681-0.681-1.49-1.222-2.379-1.591s-1.844-0.559-2.807-0.559-1.917 0.19-2.807 0.559c-0.89 0.369-1.699 0.909-2.38 1.591l-1.413 1.413-1.413-1.413c-1.376-1.376-3.241-2.148-5.187-2.148s-3.811 0.773-5.187 2.148c-1.376 1.376-2.148 3.241-2.148 5.187s0.773 3.811 2.148 5.187l11.787 11.787 11.787-11.787c0.681-0.681 1.222-1.49 1.591-2.38s0.559-1.844 0.559-2.807-0.19-1.917-0.559-2.807c-0.369-0.89-0.909-1.699-1.591-2.38z"></path>
</symbol>
<symbol id="icon-map-pin" viewBox="0 0 29 32">
<path stroke-linejoin="round" stroke-linecap="round" stroke-miterlimit="4" stroke-width="2.4" d="M26.4 13.333c0 9.333-12 17.333-12 17.333s-12-8-12-17.333c0-3.183 1.264-6.235 3.515-8.485s5.303-3.515 8.485-3.515c3.183 0 6.235 1.264 8.485 3.515s3.515 5.303 3.515 8.485z"></path>
<path stroke-linejoin="round" stroke-linecap="round" stroke-miterlimit="4" stroke-width="2.4" d="M14.4 17.333c2.209 0 4-1.791 4-4s-1.791-4-4-4c-2.209 0-4 1.791-4 4s1.791 4 4 4z"></path>
</symbol>
<symbol id="icon-microwave" viewBox="0 0 32 32">
<path stroke-linejoin="round" stroke-linecap="round" stroke-miterlimit="4" stroke-width="2.24" d="M29.714 5.714h-27.429c-0.303 0-0.594 0.12-0.808 0.335s-0.335 0.505-0.335 0.808v18.286c0 0.303 0.12 0.594 0.335 0.808s0.505 0.335 0.808 0.335h27.429c0.303 0 0.594-0.12 0.808-0.335s0.335-0.505 0.335-0.808v-18.286c0-0.303-0.12-0.594-0.335-0.808s-0.505-0.335-0.808-0.335z"></path>
<path stroke-linejoin="round" stroke-linecap="round" stroke-miterlimit="4" stroke-width="2.24" d="M25.143 11.428h1.143M25.143 16h1.143M19.428 10.286h-12.571c-0.303 0-0.594 0.12-0.808 0.335s-0.335 0.505-0.335 0.808v9.143c0 0.303 0.12 0.594 0.335 0.808s0.505 0.335 0.808 0.335h12.571c0.303 0 0.594-0.12 0.808-0.335s0.335-0.505 0.335-0.808v-9.143c0-0.303-0.12-0.594-0.335-0.808s-0.505-0.335-0.808-0.335z"></path>
</symbol>
<symbol id="icon-water" viewBox="0 0 32 32">
<path stroke-linejoin="miter" stroke-linecap="butt" stroke-miterlimit="10" stroke-width="2.4" d="M25 20c0 5.523-3.477 9-9 9s-9-3.477-9-9c0-5.927 6.452-13.928 8.431-16.242 0.070-0.082 0.158-0.148 0.256-0.194s0.205-0.069 0.314-0.069c0.108 0 0.215 0.023 0.314 0.069s0.186 0.111 0.256 0.194c1.978 2.314 8.43 10.316 8.43 16.242z"></path>
<path stroke-linejoin="round" stroke-linecap="round" stroke-miterlimit="4" stroke-width="2.4" d="M21.5 20.5c0 1.193-0.474 2.338-1.318 3.182s-1.988 1.318-3.182 1.318"></path>
</symbol>
<symbol id="icon-gas" viewBox="0 0 32 32">
<path d="M25.072 13.991c-0.368-0.453-0.816-0.846-1.232-1.239-1.072-0.907-2.288-1.556-3.311-2.508-2.384-2.206-2.912-5.848-1.392-8.644-1.52 0.348-2.848 1.133-3.983 1.995-4.143 3.143-5.775 8.689-3.823 13.449 0.064 0.151 0.128 0.302 0.128 0.499 0 0.332-0.24 0.635-0.56 0.756-0.368 0.151-0.752 0.060-1.056-0.181-0.091-0.071-0.167-0.159-0.224-0.257-1.808-2.161-2.096-5.259-0.88-7.737-2.672 2.055-4.127 5.531-3.919 8.81 0.096 0.756 0.192 1.511 0.464 2.267 0.224 0.907 0.656 1.813 1.136 2.614 1.728 2.614 4.719 4.488 7.935 4.866 3.423 0.408 7.087-0.181 9.71-2.418 2.927-2.508 3.951-6.528 2.448-9.974l-0.208-0.393c-0.336-0.695-1.232-1.904-1.232-1.904zM20.017 23.512c-0.448 0.363-1.184 0.756-1.76 0.907-1.792 0.604-3.583-0.242-4.639-1.239 1.904-0.423 3.039-1.753 3.375-3.098 0.272-1.209-0.24-2.206-0.448-3.37-0.192-1.118-0.16-2.070 0.272-3.113 0.304 0.574 0.624 1.148 1.008 1.602 1.232 1.511 3.167 2.176 3.583 4.231 0.064 0.212 0.096 0.423 0.096 0.65 0.048 1.239-0.528 2.599-1.488 3.43z"></path>
</symbol>
<symbol id="icon-freezer" viewBox="0 0 32 32">
<path stroke-linejoin="round" stroke-linecap="round" stroke-miterlimit="4" stroke-width="2.0800" d="M23.4 3h-14.793c-1.105 0-2 0.895-2 2v20.387c0 1.104 0.895 2 2 2h14.793c1.104 0 2-0.896 2-2v-20.387c0-1.105-0.896-2-2-2z"></path>
<path stroke-linejoin="round" stroke-linecap="round" stroke-miterlimit="4" stroke-width="2.0800" d="M6.607 13.127h18.787M10.313 10.567v-4.040M10.313 19.44v-4.040M8.427 27.387v0.7c0 0.241 0.095 0.472 0.265 0.643s0.4 0.268 0.642 0.27h1.647c0.242 0 0.475-0.096 0.646-0.268s0.268-0.404 0.268-0.646v-0.7M20.1 27.387v0.7c0 0.242 0.096 0.474 0.268 0.646s0.404 0.268 0.646 0.268h1.653c0.242 0 0.474-0.096 0.646-0.268s0.268-0.404 0.268-0.646v-0.7"></path>
</symbol>
<symbol id="icon-shower" viewBox="0 0 32 32">
<path stroke-linejoin="round" stroke-linecap="round" stroke-miterlimit="4" stroke-width="2.56" d="M5.333 5.333l3.333 3.333M18 8.667c-1.242-1.217-2.914-1.895-4.653-1.886s-3.404 0.703-4.634 1.933c-1.23 1.23-1.924 2.895-1.933 4.634s0.669 3.411 1.886 4.653M20 6.667l-13.333 13.333M18.667 22.667v0.013M13.333 21.333v0.013M17.333 17.333v0.013M21.333 13.333v0.013M14.667 26.667v0.013M22.667 18.667v0.013M26.667 14.667v0.013"></path>
</symbol>
<symbol id="icon-toilet" viewBox="0 0 32 32">
<path d="M24 4c1.939 0 3.269 1.647 4.040 3.313 0.761 1.653 1.224 3.811 1.287 6.145l0.007 0.541v12.667c0 0.18-0.036 0.357-0.106 0.523s-0.173 0.315-0.303 0.439c-0.13 0.125-0.283 0.222-0.451 0.285s-0.347 0.093-0.527 0.086l-0.165-0.019-3.781-0.629-3.781 0.629c-0.16 0.027-0.324 0.024-0.483-0.008l-0.157-0.041-3.579-1.193-3.579 1.193c-0.188 0.063-0.387 0.083-0.583 0.059s-0.385-0.092-0.552-0.197-0.309-0.248-0.414-0.415c-0.105-0.167-0.172-0.356-0.196-0.553l-0.009-0.159v-3.903c-0.708 0.733-1.595 1.236-2.667 1.236-1.939 0-3.269-1.647-4.040-3.313-0.819-1.78-1.293-4.145-1.293-6.687s0.473-4.907 1.293-6.687c0.735-1.592 1.981-3.164 3.78-3.303l0.26-0.011h16zM24 6.667h-12.291c0.12 0.213 0.229 0.429 0.329 0.647 0.821 1.78 1.295 4.145 1.295 6.687v10.817l2.245-0.749c0.274-0.091 0.569-0.091 0.843 0l3.687 1.229 3.673-0.613c0.144-0.024 0.293-0.024 0.437 0l2.448 0.409v-11.093c0-2.245-0.423-4.213-1.049-5.569-0.677-1.471-1.347-1.764-1.617-1.764zM8 6.667c-0.271 0-0.94 0.293-1.617 1.764-0.627 1.356-1.049 3.324-1.049 5.569s0.423 4.213 1.049 5.569c0.677 1.471 1.347 1.764 1.617 1.764s0.94-0.293 1.617-1.764c0.627-1.356 1.049-3.324 1.049-5.569s-0.423-4.213-1.049-5.569c-0.677-1.471-1.347-1.764-1.617-1.764zM8 11.333c0.736 0 1.333 1.193 1.333 2.667s-0.597 2.667-1.333 2.667c-0.736 0-1.333-1.193-1.333-2.667s0.597-2.667 1.333-2.667z"></path>
</symbol>
<symbol id="icon-hob" viewBox="0 0 32 32">
<path fill="none" stroke="#101828" style="stroke: var(--color1, #101828)" stroke-linejoin="miter" stroke-linecap="butt" stroke-miterlimit="4" stroke-width="2.4" d="M12 6.667h16c0.354 0 0.693 0.14 0.943 0.391s0.391 0.589 0.391 0.943v17.333c0 0.354-0.14 0.693-0.391 0.943s-0.589 0.391-0.943 0.391h-16M12 6.667h-8c-0.354 0-0.693 0.14-0.943 0.391s-0.39 0.589-0.39 0.943v17.333c0 0.354 0.14 0.693 0.39 0.943s0.589 0.391 0.943 0.391h8M12 6.667v20"></path>
<path fill="none" stroke="#101828" style="stroke: var(--color1, #101828)" stroke-linejoin="round" stroke-linecap="round" stroke-miterlimit="4" stroke-width="2.4" d="M7.333 11.333v2.667M24.667 10.667l-8 11.333"></path>
<path d="M8.667 18c0-0.736-0.597-1.333-1.333-1.333s-1.333 0.597-1.333 1.333c0 0.736 0.597 1.333 1.333 1.333s1.333-0.597 1.333-1.333z"></path>
<path d="M8.667 22c0-0.736-0.597-1.333-1.333-1.333s-1.333 0.597-1.333 1.333c0 0.736 0.597 1.333 1.333 1.333s1.333-0.597 1.333-1.333z"></path>
</symbol>
<symbol id="icon-radio" viewBox="0 0 32 32">
<path stroke-linejoin="miter" stroke-linecap="butt" stroke-miterlimit="4" stroke-width="2.0800" d="M2.667 18.667c0-5.028 0-7.543 1.563-9.104 1.561-1.563 4.076-1.563 9.104-1.563h5.333c5.028 0 7.543 0 9.104 1.563 1.563 1.561 1.563 4.076 1.563 9.104s0 7.543-1.563 9.104c-1.561 1.563-4.076 1.563-9.104 1.563h-5.333c-5.028 0-7.543 0-9.104-1.563-1.563-1.561-1.563-4.076-1.563-9.104z"></path>
<path stroke-linejoin="miter" stroke-linecap="butt" stroke-miterlimit="4" stroke-width="2.0800" d="M6.667 14.667c0-0.707 0.281-1.386 0.781-1.886s1.178-0.781 1.886-0.781h13.333c0.707 0 1.386 0.281 1.886 0.781s0.781 1.178 0.781 1.886-0.281 1.386-0.781 1.886c-0.5 0.5-1.178 0.781-1.886 0.781h-13.333c-0.707 0-1.386-0.281-1.886-0.781s-0.781-1.178-0.781-1.886zM12 22.667c0 0.53-0.211 1.039-0.586 1.414s-0.884 0.586-1.414 0.586-1.039-0.211-1.414-0.586c-0.375-0.375-0.586-0.884-0.586-1.414s0.211-1.039 0.586-1.414 0.884-0.586 1.414-0.586c0.53 0 1.039 0.211 1.414 0.586s0.586 0.884 0.586 1.414z"></path>
<path stroke-linejoin="miter" stroke-linecap="round" stroke-miterlimit="4" stroke-width="2.0800" d="M20 15.333v2M17.333 22.667h6.667M8.667 8l11.333-5.333"></path>
</symbol>
<symbol id="icon-CD" viewBox="0 0 32 32">
<path stroke-linejoin="miter" stroke-linecap="butt" stroke-miterlimit="4" stroke-width="2.4" d="M16 28c6.627 0 12-5.373 12-12s-5.373-12-12-12c-6.627 0-12 5.373-12 12s5.373 12 12 12z"></path>
<path stroke-linejoin="miter" stroke-linecap="round" stroke-miterlimit="4" stroke-width="2.4" d="M8.667 16c0-4.050 3.283-7.333 7.333-7.333"></path>
<path stroke-linejoin="miter" stroke-linecap="butt" stroke-miterlimit="4" stroke-width="2.4" d="M16 19.333c1.841 0 3.333-1.492 3.333-3.333s-1.492-3.333-3.333-3.333c-1.841 0-3.333 1.492-3.333 3.333s1.492 3.333 3.333 3.333z"></path>
</symbol>
<symbol id="icon-airConditioner" viewBox="0 0 32 32">
<path stroke-linejoin="round" stroke-linecap="round" stroke-miterlimit="4" stroke-width="2.4" d="M28.571 1.143h-25.143c-0.606 0-1.188 0.241-1.616 0.669s-0.669 1.010-0.669 1.616v11.429c0 0.606 0.241 1.188 0.669 1.616s1.010 0.669 1.616 0.669h25.143c0.606 0 1.188-0.241 1.616-0.669s0.67-1.010 0.67-1.616v-11.429c0-0.606-0.241-1.188-0.67-1.616s-1.010-0.669-1.616-0.669z"></path>
<path stroke-linejoin="round" stroke-linecap="round" stroke-miterlimit="4" stroke-width="2.4" d="M25.143 17.143v-4.571c0-0.606-0.241-1.188-0.67-1.616s-1.010-0.669-1.616-0.669h-13.714c-0.606 0-1.188 0.241-1.616 0.669s-0.669 1.010-0.669 1.616v4.571M5.714 28.572h0.229c0.849 0 1.663-0.337 2.263-0.937s0.937-1.414 0.937-2.263v-2.514M26.286 28.572h-0.229c-0.849 0-1.663-0.337-2.263-0.937s-0.937-1.414-0.937-2.263v-2.514M16 30.857v-8"></path>
</symbol>
<symbol id="icon-beds" viewBox="0 0 32 32">
<path stroke-linejoin="round" stroke-linecap="round" stroke-miterlimit="4" stroke-width="2.24" d="M3 26v-7c0.003-1.060 0.426-2.076 1.175-2.825s1.765-1.172 2.825-1.175h18c1.060 0.003 2.076 0.426 2.825 1.175s1.172 1.765 1.175 2.825v7M24 15h-18v-6.5c0.002-0.662 0.266-1.297 0.734-1.766s1.103-0.732 1.766-0.734h15c0.662 0.002 1.297 0.266 1.766 0.734s0.732 1.103 0.734 1.766v6.5h-2z"></path>
<path stroke-linejoin="round" stroke-linecap="round" stroke-miterlimit="4" stroke-width="2.24" d="M3 26v-0.5c0.001-0.397 0.16-0.778 0.441-1.059s0.662-0.44 1.059-0.441h23c0.397 0.001 0.778 0.16 1.059 0.441s0.44 0.662 0.441 1.059v0.5M7 15v-1c0.002-0.53 0.213-1.038 0.587-1.413s0.883-0.586 1.413-0.587h5c0.53 0.002 1.038 0.213 1.413 0.587s0.586 0.883 0.587 1.413M16 14v1M16 14c0.001-0.53 0.213-1.038 0.587-1.413s0.883-0.586 1.413-0.587h5c0.53 0.002 1.038 0.213 1.413 0.587s0.586 0.883 0.587 1.413v1"></path>
</symbol>
<symbol id="icon-kitchen" viewBox="0 0 32 32">
<path stroke-linejoin="round" stroke-linecap="round" stroke-miterlimit="4" stroke-width="2.4" d="M25.333 20v-16c-6.421 6.125-6.697 11.092-6.667 16h6.667zM25.333 20v8h-1.333v-4M10.667 5.333v22.667M6.667 5.333v4c0 1.061 0.421 2.078 1.172 2.828s1.768 1.172 2.828 1.172c1.061 0 2.078-0.421 2.828-1.172s1.172-1.768 1.172-2.828v-4"></path>
</symbol>
<symbol id="icon-petrol" viewBox="0 0 32 32">
<path d="M26.36 9.64l0.013-0.013-4.96-4.96-1.413 1.413 2.813 2.813c-1.253 0.48-2.147 1.68-2.147 3.107 0 0.438 0.086 0.871 0.254 1.276s0.413 0.772 0.723 1.081c0.625 0.625 1.473 0.976 2.357 0.976 0.48 0 0.92-0.107 1.333-0.28v9.613c0 0.354-0.14 0.693-0.391 0.943s-0.589 0.391-0.943 0.391c-0.354 0-0.693-0.14-0.943-0.391s-0.391-0.589-0.391-0.943v-6c0-0.707-0.281-1.386-0.781-1.886s-1.178-0.781-1.886-0.781h-1.333v-9.333c0-0.707-0.281-1.386-0.781-1.886s-1.178-0.781-1.886-0.781h-8c-0.707 0-1.386 0.281-1.886 0.781s-0.781 1.178-0.781 1.886v21.333h13.333v-10h2v6.667c0 0.884 0.351 1.732 0.976 2.357s1.473 0.976 2.357 0.976c0.438 0 0.871-0.086 1.276-0.254s0.772-0.413 1.081-0.723c0.309-0.309 0.555-0.677 0.723-1.081s0.254-0.838 0.254-1.276v-12.667c0-0.92-0.373-1.76-0.973-2.36zM16 18v7.333h-8v-9.333h8v2zM16 13.333h-8v-6.667h8v6.667zM24 13.333c-0.354 0-0.693-0.14-0.943-0.39s-0.391-0.589-0.391-0.943c0-0.354 0.14-0.693 0.391-0.943s0.589-0.39 0.943-0.39c0.354 0 0.693 0.14 0.943 0.39s0.391 0.589 0.391 0.943c0 0.354-0.14 0.693-0.391 0.943s-0.589 0.39-0.943 0.39z"></path>
</symbol>
<symbol id="icon-AC" viewBox="0 0 53 32">
<path d="M12.277 22.842c-0.689 0-1.245-0.556-1.245-1.245s0.556-1.245 1.245-1.245h21.982c0.090 0 0.18 0.009 0.265 0.030 0.787 0.12 1.523 0.342 2.182 0.698 0.727 0.394 1.348 0.937 1.827 1.665 1.648 2.495 1.404 4.81 0.24 6.522-0.757 1.117-1.913 1.947-3.188 2.384-1.284 0.441-2.704 0.484-3.988 0.013-1.943-0.71-3.518-2.52-3.749-5.798-0.047-0.685 0.471-1.275 1.155-1.322s1.275 0.471 1.322 1.155c0.15 2.114 1.031 3.235 2.114 3.629 0.732 0.265 1.57 0.231 2.345-0.034 0.787-0.27 1.489-0.766 1.934-1.421 0.638-0.937 0.732-2.259-0.261-3.761-0.244-0.368-0.561-0.646-0.933-0.847-0.389-0.21-0.843-0.347-1.339-0.424l-21.91 0.004zM6.594 11.644c-0.689 0-1.245-0.556-1.245-1.245s0.556-1.245 1.245-1.245h21.914c0.501-0.077 0.954-0.214 1.344-0.424 0.372-0.201 0.689-0.479 0.933-0.847 0.993-1.502 0.894-2.824 0.261-3.761-0.445-0.655-1.147-1.151-1.934-1.421-0.775-0.265-1.618-0.3-2.345-0.034-1.078 0.394-1.964 1.515-2.114 3.629-0.047 0.685-0.638 1.202-1.322 1.155s-1.202-0.638-1.155-1.322c0.231-3.278 1.806-5.088 3.749-5.798 1.284-0.466 2.704-0.424 3.988 0.013 1.275 0.436 2.431 1.271 3.188 2.384 1.164 1.712 1.408 4.027-0.24 6.522-0.479 0.727-1.1 1.271-1.827 1.665-0.659 0.355-1.395 0.578-2.182 0.697-0.086 0.017-0.175 0.030-0.265 0.030l-21.991 0.004zM1.245 17.245c-0.689 0-1.245-0.561-1.245-1.245 0-0.689 0.556-1.245 1.245-1.245h45.818c0.501-0.077 0.954-0.214 1.339-0.424 0.372-0.201 0.689-0.479 0.933-0.847 0.993-1.502 0.894-2.824 0.261-3.761-0.445-0.655-1.147-1.151-1.934-1.421-0.775-0.265-1.618-0.3-2.345-0.034-1.078 0.394-1.964 1.515-2.114 3.629-0.047 0.685-0.638 1.202-1.322 1.155s-1.202-0.638-1.155-1.322c0.231-3.278 1.806-5.088 3.749-5.798 1.284-0.466 2.704-0.424 3.988 0.013 1.275 0.436 2.431 1.271 3.188 2.384 1.164 1.712 1.408 4.027-0.24 6.522-0.479 0.727-1.1 1.271-1.827 1.665-0.659 0.355-1.395 0.578-2.182 0.698-0.086 0.017-0.175 0.030-0.265 0.030l-45.89 0.004z"></path>
</symbol>

<symbol id="icon-automatic" viewBox="0 0 32 32">
<path stroke-linejoin="round" stroke-linecap="round" stroke-miterlimit="4" stroke-width="2.4" d="M22.667 14.667h2c0.53 0 1.039-0.211 1.414-0.586s0.586-0.884 0.586-1.414-0.211-1.039-0.586-1.414c-0.375-0.375-0.884-0.586-1.414-0.586h-2v6.667M22.667 22.667v5.333h1.333c0.707 0 1.386-0.281 1.886-0.781s0.781-1.178 0.781-1.886c0-0.707-0.281-1.385-0.781-1.886s-1.178-0.781-1.886-0.781h-1.333zM4 6.667c0 0.707 0.281 1.386 0.781 1.886s1.178 0.781 1.886 0.781c0.707 0 1.386-0.281 1.886-0.781s0.781-1.178 0.781-1.886c0-0.707-0.281-1.386-0.781-1.886s-1.178-0.781-1.886-0.781c-0.707 0-1.386 0.281-1.886 0.781s-0.781 1.178-0.781 1.886z"></path>
<path stroke-linejoin="round" stroke-linecap="round" stroke-miterlimit="4" stroke-width="2.4" d="M6.667 9.333v4c0 0.354 0.14 0.693 0.391 0.943s0.589 0.391 0.943 0.391h4M12 14.667v9.333c0 0.354 0.14 0.693 0.391 0.943s0.589 0.391 0.943 0.391h4M12 14.667h5.333"></path>
</symbol>
<symbol id="icon-adults" viewBox="0 0 32 32">
<path d="M9.067 24.133h-4.4c-0.267 0-0.4-0.133-0.533-0.267s-0.267-0.4-0.133-0.667c0.8-2.267 2.8-3.6 5.067-3.6 2.8 0 5.067-2.4 5.067-5.2s-2.267-5.467-5.067-5.467-5.067 2.4-5.067 5.333c0 1.333 0.533 2.667 1.333 3.6-1.733 0.933-3.067 2.4-3.867 4.4-0.267 0.933-0.133 2.133 0.533 3.067s1.6 1.467 2.667 1.467h4.4c0.8 0 1.333-0.533 1.333-1.333s-0.533-1.333-1.333-1.333zM6.667 14.267c0-1.467 1.067-2.533 2.4-2.533s2.4 1.2 2.4 2.533c0 1.467-1.067 2.533-2.4 2.533s-2.4-1.2-2.4-2.533z"></path>
<path d="M30.533 21.467c-0.933-2.533-2.8-4.4-4.933-5.467 1.2-1.067 1.867-2.667 1.867-4.533 0-3.467-2.667-6.267-5.867-6.267s-5.867 2.8-5.867 6.267c0 1.733 0.667 3.333 1.867 4.533-2.133 1.067-4 2.933-4.933 5.467-0.667 1.2-0.4 2.533 0.267 3.6s1.867 1.6 3.067 1.6h11.067c1.2 0 2.4-0.667 3.067-1.6 0.8-1.067 0.933-2.4 0.4-3.6zM18.267 11.6c0-2 1.467-3.6 3.2-3.6s3.2 1.6 3.2 3.6-1.467 3.6-3.2 3.6c-1.733 0-3.2-1.733-3.2-3.6zM27.867 23.6c-0.133 0.133-0.4 0.533-0.8 0.533h-11.067c-0.533 0-0.8-0.4-0.8-0.533-0.133-0.133-0.4-0.667-0.133-1.2 1.067-2.8 3.733-4.667 6.533-4.667s5.467 1.867 6.533 4.667c0.133 0.533-0.133 1.067-0.267 1.2z"></path>
</symbol>
<symbol id="icon-rating" viewBox="0 0 34 32">
<path stroke-linejoin="miter" stroke-linecap="butt" stroke-miterlimit="4" stroke-width="2.56" d="M13.227 10.020l3.84-7.277 3.84 7.277c0.34 0.644 0.959 1.093 1.675 1.217l8.108 1.403-5.735 5.9c-0.507 0.522-0.744 1.249-0.64 1.97l1.171 8.144-7.384-3.631c-0.653-0.321-1.418-0.321-2.071 0l-7.384 3.631 1.171-8.144c0.104-0.72-0.133-1.448-0.64-1.97l-5.735-5.9 8.108-1.403c0.717-0.124 1.336-0.574 1.675-1.217zM30.971 12.35v0zM8.285 28.833c0 0 0 0 0 0h-0z"></path>
</symbol>
<symbol id="icon-bathroom" viewBox="0 0 32 32">
<path d="M30.4 17.067h-0.533v-11.2c0-2.667-2.133-4.8-4.8-4.8-2.361 0-4.058 1.75-4.248 4.315-1.239 0.234-2.152 1.302-2.152 2.618 0 0.32 0.213 0.533 0.533 0.533h4.267c0.32 0 0.533-0.213 0.533-0.533 0-1.302-0.892-2.361-2.11-2.61 0.159-1.695 1.177-3.256 3.177-3.256 2.080 0 3.733 1.653 3.733 3.733v11.2h-16.052c-0.241-1.23-1.305-2.133-2.615-2.133-0.533-0.64-1.28-1.067-2.133-1.067-1.013 0-1.92 0.587-2.347 1.44-0.427-0.213-0.907-0.373-1.387-0.373-1.31 0-2.374 0.903-2.615 2.133h-0.052c-0.907 0-1.6 0.693-1.6 1.6s0.693 1.6 1.6 1.6h0.641l1.439 5.707c0.427 1.653 1.92 2.827 3.627 2.827h0.427l-0.693 1.387c-0.16 0.267-0.053 0.587 0.213 0.693 0.053 0.053 0.16 0.053 0.213 0.053 0.213 0 0.373-0.107 0.48-0.267l0.933-1.867h14.8l0.907 1.813c0.107 0.213 0.267 0.32 0.48 0.32 0.107 0 0.16 0 0.213-0.107 0.213-0.107 0.32-0.427 0.213-0.693l-0.668-1.336c1.651-0.059 3.079-1.212 3.495-2.77l1.453-5.76h0.628c0.907 0 1.6-0.693 1.6-1.6s-0.693-1.6-1.6-1.6zM22.88 7.467h-3.040c0.213-0.64 0.853-1.067 1.547-1.067s1.28 0.427 1.493 1.067zM4.267 16c0.48 0 0.907 0.213 1.28 0.587 0.107 0.16 0.32 0.213 0.533 0.16s0.32-0.213 0.373-0.427c0.16-0.8 0.8-1.387 1.6-1.387 0.587 0 1.12 0.267 1.387 0.8 0.107 0.213 0.373 0.32 0.587 0.267 0.053 0 0.107 0 0.16 0 0.693 0 1.28 0.427 1.493 1.067h-8.907c0.213-0.64 0.8-1.067 1.493-1.067zM27.36 25.707c-0.32 1.173-1.387 2.027-2.613 2.027h-17.387c-1.227 0-2.293-0.853-2.613-2.027l-1.387-5.44h25.28l-1.28 5.44zM30.4 19.2h-28.8c-0.32 0-0.533-0.213-0.533-0.533s0.213-0.533 0.533-0.533h28.8c0.32 0 0.533 0.213 0.533 0.533s-0.213 0.533-0.533 0.533z"></path>
<path d="M19.2 10.933c0.32 0 0.533-0.213 0.533-0.533v-0.267c0-0.32-0.213-0.533-0.533-0.533s-0.533 0.213-0.533 0.533v0.267c0 0.32 0.213 0.533 0.533 0.533z"></path>
<path d="M19.2 13.387c0.32 0 0.533-0.267 0.533-0.533v-0.587c0-0.32-0.213-0.533-0.533-0.533s-0.533 0.213-0.533 0.533v0.587c0 0.32 0.213 0.533 0.533 0.533z"></path>
<path d="M19.2 15.467c0.32 0 0.533-0.213 0.533-0.533v-0.267c0-0.32-0.213-0.533-0.533-0.533s-0.533 0.213-0.533 0.533v0.267c0 0.32 0.213 0.533 0.533 0.533z"></path>
<path d="M21.333 10.933c0.32 0 0.533-0.213 0.533-0.533v-0.267c0-0.32-0.213-0.533-0.533-0.533s-0.533 0.213-0.533 0.533v0.267c0 0.32 0.213 0.533 0.533 0.533z"></path>
<path d="M20.8 12.853c0 0.32 0.213 0.533 0.533 0.533s0.533-0.267 0.533-0.533v-0.587c0-0.32-0.213-0.533-0.533-0.533s-0.533 0.213-0.533 0.533v0.587z"></path>
<path d="M20.8 14.933c0 0.32 0.213 0.533 0.533 0.533s0.533-0.213 0.533-0.533v-0.267c0-0.32-0.213-0.533-0.533-0.533s-0.533 0.213-0.533 0.533v0.267z"></path>
<path d="M23.467 10.933c0.32 0 0.533-0.213 0.533-0.533v-0.267c0-0.32-0.213-0.533-0.533-0.533s-0.533 0.213-0.533 0.533v0.267c-0 0.32 0.213 0.533 0.533 0.533z"></path>
<path d="M22.933 12.853c0 0.32 0.213 0.533 0.533 0.533s0.533-0.267 0.533-0.533v-0.587c0-0.32-0.213-0.533-0.533-0.533s-0.533 0.213-0.533 0.533v0.587z"></path>
<path d="M22.933 14.933c0 0.32 0.213 0.533 0.533 0.533s0.533-0.213 0.533-0.533v-0.267c0-0.32-0.213-0.533-0.533-0.533s-0.533 0.213-0.533 0.533v0.267z"></path>
</symbol>
<symbol id="icon-children" viewBox="0 0 32 32">
<path d="M11.141 9.491c1.579 1.012 2.38 2.73 1.612 3.928s-2.663 1.188-4.242 0.176c-0.215-0.139-0.401-0.279-0.577-0.43l0.006 0.005c-0.454 0.646-1.080 1.239-1.823 1.715-2.169 1.39-4.735 1.404-5.742-0.167s0.077-3.897 2.246-5.287c1.805-1.157 3.896-1.366 5.129-0.475 0.937-0.408 2.25-0.194 3.39 0.537zM10.45 10.569c-0.933-0.598-1.944-0.685-2.365-0.333-0.267 0.223-0.663 0.192-0.892-0.070-0.635-0.727-2.331-0.651-3.88 0.342-1.648 1.056-2.401 2.673-1.859 3.519s2.326 0.836 3.973-0.22c0.838-0.537 1.479-1.245 1.806-1.958 0.2-0.437 0.793-0.505 1.088-0.125 0.228 0.295 0.529 0.568 0.881 0.794 1.059 0.679 2.171 0.684 2.474 0.211s-0.167-1.481-1.226-2.159zM8.483 19.33c-0.29 0.715-0.986 1.194-1.771 1.194-0.812 0-1.527-0.511-1.798-1.262-0.12-0.332-0.487-0.505-0.819-0.385s-0.505 0.487-0.385 0.819c0.453 1.254 1.646 2.107 3.002 2.107 1.311 0 2.474-0.798 2.958-1.993 0.133-0.328-0.025-0.701-0.353-0.834s-0.701 0.025-0.834 0.353zM5.653 17.083c0 0.529-0.429 0.957-0.958 0.957s-0.957-0.428-0.957-0.957 0.429-0.958 0.957-0.958c0.529 0 0.958 0.429 0.958 0.958zM9.878 17.083c0 0.529-0.429 0.957-0.957 0.957s-0.958-0.428-0.958-0.957 0.429-0.958 0.958-0.958c0.529 0 0.957 0.429 0.957 0.958z"></path>
<path d="M11.266 14.176c0.68 0.934 1.052 2.058 1.052 3.238 0 3.043-2.467 5.509-5.51 5.509s-5.51-2.467-5.51-5.509c0-0.811 0.175-1.596 0.508-2.314 0.149-0.321 0.009-0.701-0.311-0.85s-0.701-0.009-0.85 0.311c-0.411 0.886-0.627 1.855-0.627 2.853 0 3.75 3.040 6.789 6.79 6.789s6.79-3.040 6.79-6.789c0-1.454-0.459-2.84-1.297-3.992-0.208-0.286-0.608-0.349-0.894-0.141s-0.349 0.608-0.141 0.894zM25.195 18.907c-0.29 0.715-0.986 1.194-1.771 1.194-0.812 0-1.527-0.511-1.798-1.262-0.12-0.332-0.487-0.505-0.819-0.385s-0.505 0.487-0.385 0.819c0.453 1.254 1.646 2.107 3.002 2.107 1.311 0 2.474-0.798 2.958-1.993 0.133-0.328-0.025-0.701-0.353-0.834s-0.701 0.025-0.834 0.353zM22.279 16.816c0 0.529-0.429 0.958-0.957 0.958s-0.958-0.429-0.958-0.958 0.429-0.957 0.958-0.957c0.529 0 0.957 0.428 0.957 0.957zM26.504 16.816c0 0.529-0.429 0.958-0.957 0.958s-0.958-0.429-0.958-0.958 0.429-0.957 0.958-0.957c0.529 0 0.957 0.428 0.957 0.957z"></path>
<path d="M28.166 14.572c0.507 0.847 0.778 1.815 0.778 2.824 0 3.043-2.467 5.509-5.51 5.509s-5.51-2.467-5.51-5.509c0-1.051 0.294-2.057 0.841-2.926 0.188-0.299 0.098-0.694-0.201-0.882s-0.694-0.098-0.882 0.201c-0.674 1.072-1.037 2.314-1.037 3.607 0 3.75 3.040 6.789 6.79 6.789s6.79-3.040 6.79-6.789c0-1.242-0.335-2.438-0.96-3.482-0.181-0.303-0.575-0.402-0.878-0.221s-0.402 0.575-0.221 0.878z"></path>
<path d="M16.145 16.254c0-4.029 3.266-7.294 7.294-7.294 3.949 0 7.151 3.202 7.151 7.151v3.552h-1.605c-0.353 0-0.64 0.287-0.64 0.64s0.287 0.64 0.64 0.64h1.698c0.656 0 1.187-0.532 1.187-1.187v-3.645c0-4.656-3.775-8.431-8.431-8.431-4.736 0-8.574 3.839-8.574 8.574v3.501c0 0.656 0.531 1.187 1.187 1.187h1.921c0.353 0 0.64-0.287 0.64-0.64s-0.287-0.64-0.64-0.64h-1.828v-3.409z"></path>
<path d="M18.237 14.779h10.404c0.353 0 0.64-0.287 0.64-0.64s-0.287-0.64-0.64-0.64h-10.404c-0.353 0-0.64 0.287-0.64 0.64s0.287 0.64 0.64 0.64z"></path>
</symbol>
<symbol id="icon-close" viewBox="0 0 32 32">
<path stroke-linejoin="round" stroke-linecap="round" stroke-miterlimit="4" stroke-width="3" d="M24 8l-16 16"></path>
<path stroke-linejoin="round" stroke-linecap="round" stroke-miterlimit="4" stroke-width="3" d="M8 8l16 16"></path>
</symbol>
<symbol id="icon-all" viewBox="0 0 32 32">
<path d="M16 0c-4.565 0-8.68 1.932-11.597 5.009-0.021 0.018-0.047 0.024-0.066 0.044-0.031 0.031-0.042 0.072-0.071 0.106-2.639 2.855-4.266 6.657-4.266 10.841 0 8.822 7.177 15.999 15.999 15.999 8.822 0 15.999-7.177 15.999-15.999s-7.177-16-15.999-16zM2.579 16c0-3.053 1.037-5.864 2.761-8.122l18.78 18.782c-2.258 1.724-5.066 2.761-8.12 2.761-7.4 0-13.421-6.021-13.421-13.421zM26.013 24.904l-18.919-18.917c2.373-2.113 5.487-3.409 8.906-3.409 7.4 0 13.421 6.020 13.421 13.421-0.001 3.419-1.296 6.534-3.408 8.905z"></path>
</symbol>
<symbol id="icon-filter" viewBox="0 0 32 32">
<path d="M14.575 3.667c-0.593-2.13-2.515-3.667-4.797-3.667s-4.204 1.537-4.788 3.632l-0.008 0.035h-4.981v2.667h4.981c0.593 2.13 2.515 3.667 4.797 3.667s4.204-1.537 4.788-3.632l0.008-0.035h17.425v-2.667zM9.777 7.333c-1.289 0-2.333-1.045-2.333-2.333s1.045-2.333 2.333-2.333c1.289 0 2.333 1.045 2.333 2.333v0c-0.002 1.288-1.046 2.331-2.333 2.333h-0z"></path>
<path d="M22.223 11c-2.278 0.008-4.196 1.541-4.788 3.631l-0.009 0.035h-17.427v2.667h17.427c0.592 2.131 2.514 3.668 4.796 3.668s4.204-1.538 4.788-3.633l0.008-0.035h4.981v-2.667h-4.981c-0.6-2.125-2.518-3.658-4.795-3.667h-0.001zM22.223 18.333c-1.289 0-2.333-1.045-2.333-2.333s1.045-2.333 2.333-2.333c1.289 0 2.333 1.045 2.333 2.333v0c-0.002 1.288-1.045 2.332-2.333 2.333h-0z"></path>
<path d="M9.777 22c-2.28 0.007-4.2 1.54-4.792 3.631l-0.008 0.035h-4.977v2.667h4.981c0.593 2.13 2.515 3.667 4.797 3.667s4.204-1.537 4.788-3.632l0.008-0.035h17.425v-2.667h-17.425c-0.6-2.126-2.518-3.659-4.796-3.667h-0.001zM9.777 29.333c-1.289 0-2.333-1.045-2.333-2.333s1.045-2.333 2.333-2.333c1.289 0 2.333 1.045 2.333 2.333v0c-0.002 1.288-1.046 2.331-2.333 2.333h-0z"></path>
</symbol>
</defs>
</svg>
